<?xml version="1.0" encoding="UTF-8" standalone="no"?>
<svg width="1040" height="620" viewBox="0 0 1040 620"
 xmlns="http://www.w3.org/2000/svg" xmlns:xlink="http://www.w3.org/1999/xlink"
 font-family="Helvetica,Arial,sans-serif">
<defs>
  <marker id="arrow" viewBox="0 0 10 10" refX="9" refY="5"
          markerWidth="7" markerHeight="7" orient="auto-start-reverse">
    <path d="M 0 0 L 10 5 L 0 10 z" fill="#000000"/>
  </marker>
</defs>
<rect width="1040" height="620" fill="#ffffff"/>

<!-- ================= groups ================= -->
<!-- 1. Input Data -->
<rect x="18" y="240" width="170" height="170" fill="none" stroke="#000000" stroke-dasharray="5,2"/>
<text x="103" y="260" text-anchor="middle" font-size="14" font-weight="bold">1. Input Data</text>

<!-- 2. Core Clustering -->
<rect x="238" y="255" width="160" height="100" fill="none" stroke="#000000"/>
<text x="318" y="275" text-anchor="middle" font-size="14" font-weight="bold">2. Core Clustering</text>

<!-- 3. Diagnosis -->
<rect x="640" y="18" width="382" height="168" fill="none" stroke="#000000"/>
<text x="831" y="38" text-anchor="middle" font-size="14" font-weight="bold">3. Diagnosis</text>

<!-- 4. Hierarchy -->
<rect x="640" y="216" width="382" height="150" fill="none" stroke="#000000"/>
<text x="831" y="236" text-anchor="middle" font-size="14" font-weight="bold">4. Hierarchy</text>

<!-- 5. Visualization -->
<rect x="640" y="396" width="382" height="150" fill="none" stroke="#000000"/>
<text x="831" y="416" text-anchor="middle" font-size="14" font-weight="bold">5. Visualization</text>

<!-- ================= nodes ================= -->
<!-- input nodes -->
<rect x="33" y="275" width="140" height="40" fill="#fffbe6" stroke="#000000"/>
<text x="103" y="291" text-anchor="middle" font-size="12">flow_input</text>
<text x="103" y="306" text-anchor="middle" font-size="11">(OD data.frame)</text>

<rect x="33" y="345" width="140" height="40" fill="#fffbe6" stroke="#000000"/>
<text x="103" y="361" text-anchor="middle" font-size="12">KR_SiGun</text>
<text x="103" y="376" text-anchor="middle" font-size="11">(sf object)</text>

<!-- flowbca -->
<rect x="258" y="290" width="120" height="40" fill="#add8e6" stroke="#000000"/>
<text x="318" y="314" text-anchor="middle" font-size="13">flowbca</text>

<!-- bca_result (note) -->
<path d="M 448 285 L 548 285 L 568 305 L 568 335 L 448 335 Z M 548 285 L 548 305 L 568 305"
      fill="#ffffff" stroke="#4169e1"/>
<text x="503" y="309" text-anchor="middle" font-size="12" fill="#4169e1">bca_result</text>
<text x="503" y="324" text-anchor="middle" font-size="11" fill="#4169e1">(list)</text>

<!-- diagnosis nodes -->
<rect x="660" y="52" width="150" height="36" fill="#ffffff" stroke="#000000"/>
<text x="735" y="74" text-anchor="middle" font-size="12">flowbca_stat</text>

<rect x="850" y="52" width="150" height="36" fill="#ffffff" stroke="#000000"/>
<text x="925" y="74" text-anchor="middle" font-size="12">flowbca_plot</text>

<rect x="660" y="120" width="180" height="36" fill="#ffffff" stroke="#000000"/>
<text x="750" y="142" text-anchor="middle" font-size="12">flowbca_modularity</text>

<rect x="850" y="117" width="160" height="42" fill="#d3d3d3" stroke="#000000"/>
<text x="930" y="134" text-anchor="middle" font-size="12">flowbca_diagnosis</text>
<text x="930" y="149" text-anchor="middle" font-size="11">(all-in-one)</text>

<!-- hierarchy nodes -->
<rect x="660" y="250" width="165" height="36" fill="#ffffff" stroke="#000000"/>
<text x="742" y="272" text-anchor="middle" font-size="12">build_hierarchy</text>

<rect x="845" y="250" width="160" height="36" fill="#ffffff" stroke="#000000"/>
<text x="925" y="272" text-anchor="middle" font-size="12">build_cluster_tree</text>

<rect x="660" y="305" width="165" height="36" fill="#ffffff" stroke="#000000"/>
<text x="742" y="327" text-anchor="middle" font-size="12">build_dendrogram</text>

<rect x="845" y="305" width="160" height="36" fill="#ffffff" stroke="#000000"/>
<text x="925" y="327" text-anchor="middle" font-size="12">hierarchy_cluster</text>

<!-- visualization nodes -->
<rect x="660" y="430" width="165" height="36" fill="#ffffff" stroke="#000000"/>
<text x="742" y="452" text-anchor="middle" font-size="12">flowbca_gis_layer</text>

<rect x="880" y="430" width="120" height="36" fill="#ffffff" stroke="#000000"/>
<text x="940" y="452" text-anchor="middle" font-size="12">flowbca_ani</text>

<rect x="660" y="485" width="150" height="36" fill="#ffffff" stroke="#000000"/>
<text x="735" y="507" text-anchor="middle" font-size="12">flowbca_map</text>

<!-- ================= edges ================= -->
<!-- flow_input -> flowbca -->
<line x1="173" y1="295" x2="252" y2="305" stroke="#000000" marker-end="url(#arrow)"/>

<!-- flowbca -> bca_result -->
<line x1="378" y1="310" x2="442" y2="310" stroke="#000000" marker-end="url(#arrow)"/>

<!-- flow_input -> flowbca_diagnosis (routed above) -->
<polyline points="103,273 103,8 930,8 930,113" fill="none" stroke="#808080" marker-end="url(#arrow)"/>

<!-- bca_result -> Diagnosis group -->
<line x1="568" y1="295" x2="634" y2="105" stroke="#000000" marker-end="url(#arrow)"/>
<text x="592" y="192" text-anchor="start" font-size="11" fill="#404040">unit_set,</text>
<text x="592" y="206" text-anchor="start" font-size="11" fill="#404040">F_matrix_history</text>

<!-- bca_result -> Hierarchy group -->
<line x1="568" y1="312" x2="634" y2="291" stroke="#000000" marker-end="url(#arrow)"/>
<text x="576" y="336" text-anchor="start" font-size="11" fill="#404040">unit_set</text>

<!-- bca_result -> Visualization group -->
<line x1="568" y1="328" x2="634" y2="468" stroke="#000000" marker-end="url(#arrow)"/>
<text x="556" y="412" text-anchor="start" font-size="11" fill="#404040">unit_set</text>

<!-- KR_SiGun -> Visualization group -->
<line x1="173" y1="368" x2="634" y2="498" stroke="#000000" marker-end="url(#arrow)"/>
<text x="330" y="428" text-anchor="start" font-size="11" fill="#404040">sf object</text>

<!-- flowbca_stat -> flowbca_plot -->
<line x1="810" y1="70" x2="844" y2="70" stroke="#000000" marker-end="url(#arrow)"/>

<!-- flowbca_gis_layer -> flowbca_ani -->
<line x1="825" y1="448" x2="874" y2="448" stroke="#000000" marker-end="url(#arrow)"/>
<text x="850" y="441" text-anchor="middle" font-size="10" fill="#404040">gis_layers</text>

<!-- hierarchy_cluster -> flowbca_map -->
<line x1="900" y1="341" x2="790" y2="481" stroke="#000000" marker-end="url(#arrow)"/>
<text x="858" y="390" text-anchor="start" font-size="10" fill="#404040">unit_set (h_cl)</text>
</svg>
